<svg xmlns="http://www.w3.org/2000/svg" xmlns:xlink="http://www.w3.org/1999/xlink" width="755" zoomAndPan="magnify" viewBox="0 0 566.25 135.000003" height="180" preserveAspectRatio="xMidYMid meet" version="1.0"><path fill="#7ed957" d="M 73.875 59.535156 L 73.875 102.980469 L 89.066406 102.980469 L 89.066406 27.507812 L 75.328125 27.507812 L 51.910156 68.628906 L 28.496094 27.507812 L 14.660156 27.507812 L 14.660156 102.980469 L 29.945312 102.980469 L 29.945312 59.628906 L 47.074219 89.140625 L 56.652344 89.140625 Z M 73.875 59.535156 " fill-opacity="1" fill-rule="nonzero"/><path fill="#7ed957" d="M 121.09375 103.269531 C 124.964844 103.269531 128.640625 102.496094 132.125 101.042969 C 135.414062 99.496094 138.414062 97.464844 140.929688 94.753906 L 130.769531 85.078125 C 128.253906 87.789062 124.769531 89.238281 121.09375 89.238281 C 116.351562 89.238281 112.289062 86.820312 109.871094 83.046875 L 148.378906 83.046875 L 148.378906 76.078125 C 148.378906 68.726562 145.574219 61.953125 140.347656 56.726562 C 135.222656 51.597656 128.351562 48.792969 121.09375 48.792969 C 113.835938 48.792969 106.96875 51.597656 101.839844 56.726562 C 96.710938 61.953125 93.808594 68.726562 93.808594 76.078125 C 93.808594 83.335938 96.710938 90.207031 101.839844 95.335938 C 106.96875 100.460938 113.835938 103.269531 121.09375 103.269531 Z M 132.316406 69.015625 L 109.871094 69.015625 C 112.289062 65.339844 116.351562 62.824219 121.09375 62.824219 C 125.835938 62.824219 129.996094 65.339844 132.316406 69.015625 Z M 132.316406 69.015625 " fill-opacity="1" fill-rule="nonzero"/><path fill="#7ed957" d="M 223.535156 56.148438 C 219.085938 51.695312 213.28125 49.277344 207.085938 49.277344 C 200.992188 49.277344 195.378906 51.597656 191.027344 55.664062 C 186.671875 51.597656 181.058594 49.277344 175.058594 49.277344 C 171.964844 49.277344 168.964844 49.859375 166.253906 51.019531 L 166.253906 48.503906 L 151.742188 48.503906 L 151.742188 102.980469 L 166.253906 102.980469 L 166.253906 72.597656 C 166.253906 67.757812 170.222656 63.792969 175.058594 63.792969 C 179.800781 63.792969 183.769531 67.757812 183.769531 72.597656 L 183.769531 102.980469 L 198.28125 102.980469 L 198.28125 72.597656 C 198.28125 67.757812 202.25 63.792969 207.085938 63.792969 C 211.828125 63.792969 215.796875 67.757812 215.796875 72.597656 L 215.796875 102.980469 L 230.308594 102.980469 L 230.308594 72.597656 C 230.308594 66.402344 227.890625 60.5 223.535156 56.148438 Z M 223.535156 56.148438 " fill-opacity="1" fill-rule="nonzero"/><path fill="#7ed957" d="M 262.023438 103.558594 C 265.703125 103.558594 269.28125 102.882812 272.765625 101.429688 C 276.054688 100.074219 278.957031 98.042969 281.472656 95.527344 C 283.988281 93.011719 286.019531 90.011719 287.375 86.722656 C 288.828125 83.335938 289.601562 79.757812 289.601562 75.984375 C 289.601562 72.304688 288.828125 68.726562 287.375 65.242188 C 286.019531 61.953125 283.988281 59.050781 281.472656 56.535156 C 278.957031 54.019531 275.957031 51.988281 272.765625 50.632812 C 269.28125 49.179688 265.703125 48.40625 262.023438 48.40625 C 258.25 48.40625 254.671875 49.179688 251.285156 50.632812 C 247.996094 51.988281 244.996094 54.019531 242.480469 56.535156 C 239.964844 59.050781 237.929688 62.050781 236.578125 65.242188 C 235.125 68.726562 234.449219 72.304688 234.449219 75.984375 C 234.449219 79.757812 235.125 83.335938 236.578125 86.722656 C 237.929688 90.011719 239.964844 93.011719 242.480469 95.527344 C 244.996094 98.042969 247.996094 100.074219 251.285156 101.429688 C 254.671875 102.882812 258.25 103.558594 262.023438 103.558594 Z M 262.023438 62.921875 C 269.183594 62.921875 275.085938 68.824219 275.085938 75.984375 C 275.085938 83.238281 269.183594 89.046875 262.023438 89.046875 C 254.765625 89.046875 248.960938 83.238281 248.960938 75.984375 C 248.960938 68.824219 254.765625 62.921875 262.023438 62.921875 Z M 262.023438 62.921875 " fill-opacity="1" fill-rule="nonzero"/><path fill="#7ed957" d="M 337.667969 56.339844 C 332.539062 51.210938 325.765625 48.40625 318.507812 48.40625 C 311.25 48.40625 304.476562 51.210938 299.347656 56.339844 C 294.222656 61.46875 291.414062 68.339844 291.414062 75.5 C 291.414062 82.757812 294.222656 89.625 299.347656 94.753906 C 304.476562 99.882812 311.25 102.6875 318.507812 102.6875 C 322.765625 102.6875 326.925781 101.722656 330.699219 99.785156 C 329.152344 105.105469 324.3125 108.976562 318.507812 108.976562 C 315.21875 108.976562 312.21875 107.816406 309.800781 105.589844 L 299.832031 116.042969 C 304.863281 120.878906 311.542969 123.589844 318.507812 123.589844 C 325.765625 123.589844 332.539062 120.6875 337.667969 115.558594 C 342.792969 110.527344 345.601562 103.65625 345.601562 96.398438 L 345.601562 75.5 C 345.601562 68.339844 342.792969 61.46875 337.667969 56.339844 Z M 318.507812 88.175781 C 311.542969 88.175781 305.929688 82.464844 305.929688 75.5 C 305.929688 68.628906 311.542969 62.921875 318.507812 62.921875 C 325.472656 62.921875 331.183594 68.53125 331.183594 75.5 C 331.085938 82.464844 325.472656 88.175781 318.507812 88.175781 Z M 318.507812 88.175781 " fill-opacity="1" fill-rule="nonzero"/><path fill="#7ed957" d="M 352.722656 79.175781 L 352.722656 102.980469 L 367.238281 102.980469 L 367.238281 79.175781 C 367.238281 69.789062 374.878906 62.242188 384.167969 62.242188 L 384.167969 47.730469 C 379.914062 47.730469 375.847656 48.503906 371.976562 50.148438 C 368.203125 51.792969 364.816406 54.019531 362.011719 56.921875 C 359.109375 59.824219 356.785156 63.210938 355.238281 66.886719 C 353.59375 70.757812 352.722656 74.917969 352.722656 79.175781 Z M 352.722656 79.175781 " fill-opacity="1" fill-rule="nonzero"/><path fill="#7ed957" d="M 436.796875 48.503906 L 422.28125 48.503906 L 422.28125 51.503906 C 418.507812 49.566406 414.25 48.503906 409.898438 48.503906 C 406.125 48.503906 402.542969 49.277344 399.15625 50.726562 C 395.867188 52.082031 392.867188 54.113281 390.351562 56.628906 C 387.835938 59.148438 385.804688 62.050781 384.449219 65.339844 C 383 68.824219 382.320312 72.402344 382.320312 76.078125 C 382.320312 79.851562 383 83.433594 384.449219 86.820312 C 385.804688 90.109375 387.835938 93.109375 390.351562 95.625 C 392.867188 98.140625 395.867188 100.171875 399.15625 101.527344 C 402.542969 102.980469 406.125 103.65625 409.898438 103.65625 C 414.15625 103.65625 418.507812 102.6875 422.28125 100.753906 L 422.28125 102.980469 L 436.796875 102.980469 Z M 416.476562 87.398438 C 414.445312 88.5625 412.21875 89.140625 409.898438 89.140625 C 402.640625 89.140625 396.835938 83.335938 396.835938 76.078125 C 396.835938 68.917969 402.640625 63.015625 409.898438 63.015625 C 412.414062 63.015625 414.832031 63.792969 416.960938 65.144531 C 418.992188 66.5 420.636719 68.339844 421.703125 70.5625 C 422.476562 72.304688 422.863281 74.144531 422.863281 76.175781 C 422.863281 78.402344 422.28125 80.722656 421.121094 82.660156 C 420.058594 84.59375 418.410156 86.238281 416.476562 87.398438 Z M 416.476562 87.398438 " fill-opacity="1" fill-rule="nonzero"/><path fill="#7ed957" d="M 496.449219 65.339844 C 495.09375 62.144531 493.0625 59.148438 490.546875 56.628906 C 488.03125 54.113281 485.128906 52.082031 481.839844 50.726562 C 478.355469 49.277344 474.777344 48.503906 471.097656 48.503906 C 467.324219 48.503906 463.746094 49.277344 460.359375 50.726562 C 457.070312 52.082031 454.070312 54.113281 451.554688 56.628906 C 449.039062 59.148438 447.007812 62.050781 445.652344 65.339844 C 444.199219 68.824219 443.523438 72.402344 443.523438 76.078125 L 443.523438 117.300781 L 458.035156 122.136719 L 458.035156 100.367188 C 458.714844 100.851562 459.488281 101.140625 460.359375 101.527344 C 463.746094 102.980469 467.324219 103.65625 471.097656 103.65625 C 474.777344 103.65625 478.355469 102.980469 481.839844 101.527344 C 485.03125 100.171875 488.03125 98.140625 490.546875 95.625 C 493.0625 93.109375 495.09375 90.109375 496.449219 86.820312 C 497.902344 83.433594 498.675781 79.851562 498.675781 76.078125 C 498.675781 72.402344 497.902344 68.824219 496.449219 65.339844 Z M 471.097656 89.140625 C 463.84375 89.140625 458.035156 83.335938 458.035156 76.078125 C 458.035156 68.917969 463.84375 63.015625 471.097656 63.015625 C 478.257812 63.015625 484.160156 68.917969 484.160156 76.078125 C 484.160156 83.335938 478.257812 89.140625 471.097656 89.140625 Z M 471.097656 89.140625 " fill-opacity="1" fill-rule="nonzero"/><path fill="#7ed957" d="M 545.050781 56.628906 C 540.40625 51.988281 534.214844 49.375 527.632812 49.375 C 524.152344 49.375 520.765625 50.148438 517.667969 51.503906 L 517.667969 24.992188 L 503.152344 29.828125 L 503.152344 71.820312 C 503.058594 72.5 503.058594 73.273438 503.058594 73.949219 L 503.152344 73.949219 L 503.152344 102.980469 L 517.667969 102.980469 L 517.667969 72.597656 C 518.34375 67.660156 522.601562 63.886719 527.632812 63.886719 C 533.246094 63.886719 537.695312 68.433594 537.695312 73.949219 L 537.695312 102.980469 L 552.210938 102.980469 L 552.210938 73.949219 C 552.210938 67.46875 549.695312 61.273438 545.050781 56.628906 Z M 545.050781 56.628906 " fill-opacity="1" fill-rule="nonzero"/></svg>